<svg width="14" height="11" viewBox="0 0 14 11" fill="none" xmlns="http://www.w3.org/2000/svg">
<path d="M12.2909 0H1.71198C0.767639 0 0 0.767638 0 1.71198V8.94227C0 9.88665 0.767639 10.6542 1.71198 10.6542H12.288C13.2324 10.6542 14 9.88665 14 8.94227V1.71488C14.0029 0.770538 13.2353 0 12.2909 0ZM13.2208 8.94227C13.2208 9.45495 12.8036 9.87215 12.2909 9.87215H1.71198C1.19926 9.87215 0.782123 9.45495 0.782123 8.94227V1.71488C0.782123 1.20215 1.19926 0.785018 1.71198 0.785018H12.288C12.8007 0.785018 13.2179 1.20215 13.2179 1.71488V8.94227H13.2208Z" fill="white"/>
<path d="M8.82928 5.23726L12.2532 2.1667C12.4126 2.02187 12.427 1.77564 12.2822 1.61342C12.1374 1.4541 11.8911 1.43962 11.7289 1.58446L7.00722 5.8224L6.08606 4.99973C6.08316 4.99683 6.08026 4.99393 6.08026 4.99104C6.05999 4.97076 6.03971 4.95338 6.01653 4.936L2.26814 1.58156C2.10592 1.43672 1.8597 1.45121 1.71486 1.61342C1.57002 1.77564 1.58451 2.02187 1.74672 2.1667L5.21124 5.26333L1.76121 8.49321C1.60478 8.64094 1.59609 8.88717 1.74383 9.04649C1.82204 9.1276 1.92632 9.17105 2.03061 9.17105C2.1262 9.17105 2.22179 9.13629 2.29711 9.06677L5.79928 5.79054L6.74941 6.63929C6.82473 6.70591 6.91742 6.73778 7.01012 6.73778C7.10282 6.73778 7.19841 6.70302 7.27083 6.63639L8.24703 5.76157L11.7289 9.06966C11.8042 9.14208 11.9027 9.17684 11.9983 9.17684C12.1026 9.17684 12.204 9.13629 12.2822 9.05518C12.4299 8.89875 12.4241 8.64963 12.2677 8.5019L8.82928 5.23726Z" fill="white"/>
</svg>
